::::::::::::::Enjoy:Another:Release:From:T0XiC::::::::::::::

File:: Sanctum.2011.R5.LiNE.AC3.XViD-T0XiC-iNK
Video Source:: ....ELEKTRI4KA
Audio Source:: ....Own
Language::English
IMDB: http://www.imdb.com/title/tt0881320/

An underwater cave diving team experiences a life-threatening crisis during an expedition
to the unexplored and least accessible cave system in the world.

Format : AVI

Format/Info : Audio Video Interleave

File size : 1.42 GiB

Duration : 1h 44mn

Overall bit rate : 1 941 Kbps

Writing application : VirtualDubMod 1.5.10.2 (build 2540/release)

Writing library : VirtualDubMod build 2540/release



Video

ID : 0

Format : MPEG-4 Visual

Format profile : Advanced Simple@L5

Format settings, BVOP : Yes

Format settings, QPel : No

Format settings, GMC : No warppoints

Format settings, Matrix : Custom

Codec ID : XVID

Codec ID/Hint : XviD

Duration : 1h 44mn

Bit rate : 1 483 Kbps

Width : 720 pixels

Height : 384 pixels

Display aspect ratio : 1.875

Frame rate : 25.000 fps

Color space : YUV

Chroma subsampling : 4:2:0

Bit depth : 8 bits

Scan type : Progressive

Compression mode : Lossy

Bits/(Pixel*Frame) : 0.215

Stream size : 1.08 GiB (76%)

Writing library : XviD 58



Audio

ID : 1

Format : AC-3

Format/Info : Audio Coding 3

Mode extension : CM (complete main)

Codec ID : 2000

Duration : 1h 44mn

Bit rate mode : Constant

Bit rate : 448 Kbps

Channel(s) : 6 channels

Channel positions : Front: L C R, Side: L R, LFE

Sampling rate : 48.0 KHz

Bit depth : 16 bits

Compression mode : Lossy

Stream size : 334 MiB (23%)

Alignment : Split accross interleaves

Interleave, duration : 40 ms (1.00 video frame)

Interleave, preload duration : 500 ms

NOTES:: T0XiC-iNK is proud to present the first Sanctum R5, in 5.1 using our LiNE and genuine russian surround channels. Enjoy



::Why Complain? Whats Free Is Free::



::iNK is currently a free agent looking for work, if you would like iNK's touch, give me a email at:

...digital.ink@live.com



::We are always looking for friends with unreleased DVD's, Screeners, R5's, Audio, Cams, Silvers,

...and any other good sources you may have to offer - contact us: t0xicreleases@hushmail.com



:::::::::::::::::::::::::::::::::::: Respect To :::::::::::::::::::::::::::::::::::::

::IMAGiNE,FLAWL3SS,Hive-CM8,DiGiTALiNK,Tranz,Vik,OneTwo,Joey,bob,Unevano & our friends on utn and PA::

"and to all of you who support us, Thank-You"


Screenshots:

 
http://www.postimg.com/image/29000/28811.jpg
 
http://www.postimg.com/image/29000/28813.jpg


ENJOY!

